<?xml version="1.0" encoding="utf-8"?>
<!-- Generator: Adobe Illustrator 27.4.0, SVG Export Plug-In . SVG Version: 6.00 Build 0)  -->
<svg version="1.1" xmlns="http://www.w3.org/2000/svg" xmlns:xlink="http://www.w3.org/1999/xlink" x="0px" y="0px"
	 viewBox="0 0 500 500" style="enable-background:new 0 0 500 500;" xml:space="preserve">
<style type="text/css">
	.st0{opacity:0.2;}
	.st1{fill:#0073E6;stroke:#0073E6;stroke-miterlimit:10;}
	.st2{opacity:0.7;fill:#0073E6;stroke:#0073E6;stroke-miterlimit:10;}
	.st3{fill:none;stroke:#FF6600;stroke-miterlimit:10;}
	.st4{fill:#263238;stroke:#263238;stroke-miterlimit:10;}
	.st5{fill:#FFFFFF;stroke:#263238;stroke-miterlimit:10;}
	.st6{fill:#CCCCCC;stroke:#263238;stroke-miterlimit:10;}
	.st7{fill:none;stroke:#263238;stroke-miterlimit:10;}
	.st8{fill:#003454;stroke:#003454;stroke-miterlimit:10;}
</style>
<g id="Background_Simple">
	<g class="st0">
		<path class="st1" d="M445.53,417.72c0,0,65.04-106.25,44.95-226.87C470.4,70.23,373.02,80.56,306.69,61.77
			C240.36,42.99,205.24,7.19,128.65,32.62C52.06,58.05,23.7,101.57,17.23,167.89c-6.47,66.32,0.34,129.43,12.63,188.92
			c12.29,59.49,33.19,102.9,90.04,107.32s75.73-13.78,108.36,3.49C260.89,484.89,387.79,504.31,445.53,417.72z"/>
		<path class="st2" d="M445.53,417.72c0,0,65.04-106.25,44.95-226.87C470.4,70.23,373.02,80.56,306.69,61.77
			C240.36,42.99,205.24,7.19,128.65,32.62C52.06,58.05,23.7,101.57,17.23,167.89c-6.47,66.32,0.34,129.43,12.63,188.92
			c12.29,59.49,33.19,102.9,90.04,107.32s75.73-13.78,108.36,3.49C260.89,484.89,387.79,504.31,445.53,417.72z"/>
	</g>
</g>
<g id="Lines">
</g>
<g id="Coins">
	<g>
		<g>
			<g>
				<path class="st3" d="M407.17,119.31v-5.66c-4.18-0.16-7.3-1.5-9.37-4.02c-2.07-2.51-3.19-6.27-3.35-11.26l8.58-1.46
					c0.08,2.03,0.29,3.72,0.64,5.08c0.34,1.36,0.86,2.37,1.55,3.04c0.69,0.67,1.58,1,2.68,1c1.26,0,2.12-0.4,2.59-1.22
					c0.47-0.81,0.7-1.74,0.7-2.8c0-2.07-0.48-3.8-1.43-5.2c-0.95-1.4-2.26-2.81-3.93-4.23l-5.17-4.44c-1.18-1.1-2.23-2.21-3.16-3.35
					c-0.93-1.14-1.67-2.43-2.22-3.89c-0.55-1.46-0.82-3.18-0.82-5.17c0-3.81,1.08-6.79,3.26-8.91c2.17-2.13,5.08-3.34,8.73-3.62
					v-5.42h2.92v5.42c2.19,0.12,3.99,0.62,5.39,1.49c1.4,0.87,2.46,1.97,3.19,3.29c0.73,1.32,1.26,2.76,1.58,4.32
					c0.32,1.56,0.53,3.07,0.61,4.53l-8.7,1.28c-0.04-1.5-0.16-2.83-0.37-3.99c-0.2-1.16-0.57-2.06-1.1-2.71
					c-0.53-0.65-1.34-0.95-2.43-0.91c-1.14,0.04-2,0.49-2.59,1.34c-0.59,0.85-0.88,1.81-0.88,2.86c0,1.87,0.45,3.37,1.34,4.5
					c0.89,1.14,1.91,2.23,3.04,3.29l5.05,4.38c1.34,1.22,2.58,2.54,3.71,3.96c1.14,1.42,2.05,2.99,2.74,4.72
					c0.69,1.72,1.03,3.7,1.03,5.93c0,2.15-0.44,4.11-1.31,5.87c-0.87,1.76-2.13,3.19-3.77,4.29c-1.64,1.1-3.58,1.74-5.81,1.95v5.72
					H407.17z"/>
			</g>
			<path class="st3" d="M445.91,114.41c4.99-7.38,7.9-16.28,7.9-25.86c0-25.55-20.71-46.26-46.26-46.26
				c-25.55,0-46.26,20.71-46.26,46.26c0,25.55,20.71,46.26,46.26,46.26c13.68,0,25.98-5.94,34.45-15.39"/>
			<path class="st3" d="M372.67,71.34c-2.56,5.19-4.01,11.03-4.01,17.21c0,21.48,17.41,38.89,38.89,38.89
				c21.48,0,38.89-17.41,38.89-38.89c0-21.48-17.41-38.89-38.89-38.89c-11.47,0-21.79,4.97-28.9,12.87"/>
		</g>
		<g>
			<g>
				<path class="st3" d="M296.36,77.45v-3.89c-2.87-0.11-5.02-1.03-6.44-2.76c-1.42-1.73-2.19-4.31-2.3-7.74l5.9-1
					c0.06,1.39,0.2,2.56,0.44,3.49c0.24,0.93,0.59,1.63,1.07,2.09c0.47,0.46,1.09,0.69,1.84,0.69c0.86,0,1.46-0.28,1.78-0.84
					c0.32-0.56,0.48-1.2,0.48-1.92c0-1.42-0.33-2.61-0.98-3.58c-0.66-0.96-1.56-1.93-2.7-2.91l-3.56-3.05
					c-0.81-0.75-1.53-1.52-2.18-2.3c-0.64-0.78-1.15-1.67-1.53-2.68c-0.38-1-0.56-2.19-0.56-3.56c0-2.62,0.75-4.66,2.24-6.13
					c1.49-1.46,3.49-2.29,6-2.49v-3.72h2.01v3.72c1.51,0.08,2.74,0.43,3.7,1.03c0.96,0.6,1.69,1.35,2.2,2.26
					c0.5,0.91,0.86,1.9,1.09,2.97c0.22,1.07,0.36,2.11,0.42,3.12l-5.98,0.88c-0.03-1.03-0.11-1.95-0.25-2.74
					c-0.14-0.79-0.39-1.42-0.75-1.86c-0.36-0.45-0.92-0.66-1.67-0.63c-0.78,0.03-1.37,0.33-1.78,0.92c-0.4,0.59-0.61,1.24-0.61,1.97
					c0,1.28,0.31,2.32,0.92,3.1c0.61,0.78,1.31,1.53,2.09,2.26l3.47,3.01c0.92,0.84,1.77,1.74,2.55,2.72
					c0.78,0.98,1.41,2.06,1.88,3.24c0.47,1.19,0.71,2.55,0.71,4.08c0,1.48-0.3,2.82-0.9,4.04c-0.6,1.21-1.46,2.2-2.59,2.95
					c-1.13,0.75-2.46,1.2-3.99,1.34v3.93H296.36z"/>
			</g>
			<path class="st3" d="M322.99,74.09c3.43-5.08,5.43-11.19,5.43-17.78c0-17.56-14.24-31.8-31.8-31.8c-17.56,0-31.8,14.24-31.8,31.8
				c0,17.56,14.24,31.8,31.8,31.8c9.41,0,17.86-4.09,23.68-10.58"/>
			<path class="st3" d="M272.64,44.48c-1.76,3.57-2.75,7.58-2.75,11.83c0,14.76,11.97,26.73,26.73,26.73
				c14.76,0,26.73-11.97,26.73-26.73c0-14.76-11.97-26.73-26.73-26.73c-7.89,0-14.98,3.42-19.87,8.85"/>
		</g>
		<g>
			<g>
				<path class="st3" d="M433.99,432.32v-3.89c-2.87-0.11-5.02-1.03-6.44-2.76c-1.42-1.73-2.19-4.31-2.3-7.74l5.9-1
					c0.06,1.39,0.2,2.56,0.44,3.49c0.24,0.93,0.59,1.63,1.07,2.09c0.47,0.46,1.09,0.69,1.84,0.69c0.86,0,1.46-0.28,1.78-0.84
					c0.32-0.56,0.48-1.2,0.48-1.92c0-1.42-0.33-2.61-0.98-3.58c-0.66-0.96-1.56-1.93-2.7-2.91l-3.56-3.05
					c-0.81-0.75-1.53-1.52-2.18-2.3c-0.64-0.78-1.15-1.67-1.53-2.68c-0.38-1-0.56-2.19-0.56-3.56c0-2.62,0.75-4.66,2.24-6.13
					c1.49-1.46,3.49-2.29,6-2.49v-3.72h2.01v3.72c1.51,0.08,2.74,0.43,3.7,1.03c0.96,0.6,1.69,1.35,2.2,2.26
					c0.5,0.91,0.86,1.9,1.09,2.97c0.22,1.07,0.36,2.11,0.42,3.12l-5.98,0.88c-0.03-1.03-0.11-1.95-0.25-2.74
					c-0.14-0.79-0.39-1.42-0.75-1.86c-0.36-0.45-0.92-0.66-1.67-0.63c-0.78,0.03-1.37,0.33-1.78,0.92c-0.4,0.59-0.61,1.24-0.61,1.97
					c0,1.28,0.31,2.32,0.92,3.1c0.61,0.78,1.31,1.53,2.09,2.26l3.47,3.01c0.92,0.84,1.77,1.74,2.55,2.72
					c0.78,0.98,1.41,2.06,1.88,3.24c0.47,1.19,0.71,2.55,0.71,4.08c0,1.48-0.3,2.82-0.9,4.04c-0.6,1.21-1.46,2.2-2.59,2.95
					c-1.13,0.75-2.46,1.2-3.99,1.34v3.93H433.99z"/>
			</g>
			<path class="st3" d="M460.62,428.95c3.43-5.08,5.43-11.19,5.43-17.78c0-17.56-14.24-31.8-31.8-31.8
				c-17.56,0-31.8,14.24-31.8,31.8c0,17.56,14.24,31.8,31.8,31.8c9.41,0,17.86-4.09,23.68-10.58"/>
			<path class="st3" d="M410.27,399.34c-1.76,3.57-2.75,7.58-2.75,11.83c0,14.76,11.97,26.73,26.73,26.73
				c14.76,0,26.73-11.97,26.73-26.73c0-14.76-11.97-26.73-26.73-26.73c-7.89,0-14.98,3.42-19.87,8.85"/>
		</g>
		<g>
			<g>
				<path class="st3" d="M341.47,471.53v-2.34c-1.73-0.07-3.02-0.62-3.88-1.66c-0.86-1.04-1.32-2.59-1.38-4.66l3.55-0.6
					c0.03,0.84,0.12,1.54,0.26,2.1c0.14,0.56,0.36,0.98,0.64,1.26c0.29,0.28,0.65,0.42,1.11,0.42c0.52,0,0.88-0.17,1.07-0.5
					c0.19-0.34,0.29-0.72,0.29-1.16c0-0.86-0.2-1.57-0.59-2.15c-0.39-0.58-0.94-1.16-1.62-1.75l-2.14-1.84
					c-0.49-0.45-0.92-0.91-1.31-1.38c-0.39-0.47-0.69-1.01-0.92-1.61c-0.23-0.6-0.34-1.32-0.34-2.14c0-1.58,0.45-2.81,1.35-3.69
					c0.9-0.88,2.1-1.38,3.61-1.5v-2.24h1.21v2.24c0.91,0.05,1.65,0.26,2.23,0.62c0.58,0.36,1.02,0.81,1.32,1.36
					c0.3,0.55,0.52,1.14,0.65,1.79c0.13,0.65,0.22,1.27,0.25,1.88l-3.6,0.53c-0.02-0.62-0.07-1.17-0.15-1.65
					c-0.08-0.48-0.23-0.85-0.45-1.12c-0.22-0.27-0.55-0.39-1.01-0.38c-0.47,0.02-0.83,0.2-1.07,0.55c-0.24,0.35-0.36,0.75-0.36,1.18
					c0,0.77,0.18,1.39,0.55,1.86c0.37,0.47,0.79,0.92,1.26,1.36l2.09,1.81c0.55,0.5,1.07,1.05,1.54,1.64
					c0.47,0.59,0.85,1.24,1.13,1.95c0.29,0.71,0.43,1.53,0.43,2.45c0,0.89-0.18,1.7-0.54,2.43c-0.36,0.73-0.88,1.32-1.56,1.77
					c-0.68,0.45-1.48,0.72-2.4,0.81v2.37H341.47z"/>
			</g>
			<path class="st3" d="M357.49,469.5c2.06-3.05,3.27-6.73,3.27-10.7c0-10.57-8.57-19.13-19.13-19.13s-19.13,8.57-19.13,19.13
				c0,10.57,8.57,19.13,19.13,19.13c5.66,0,10.75-2.46,14.25-6.36"/>
			<path class="st3" d="M327.2,451.69c-1.06,2.15-1.66,4.56-1.66,7.12c0,8.88,7.2,16.08,16.08,16.08c8.88,0,16.08-7.2,16.08-16.08
				c0-8.88-7.2-16.08-16.08-16.08c-4.74,0-9.01,2.05-11.95,5.32"/>
		</g>
	</g>
</g>
<g id="Light_bulbs">
</g>
<g id="Gears">
</g>
<g id="Hands">
	<g>
		<polygon class="st4" points="396.35,314.21 388.19,298.9 402.77,295.78 		"/>
		<path class="st5" d="M382.86,179.62l-140.62,18.81l10.48,101.15l152.03,4.32C404.76,303.89,415.24,219.71,382.86,179.62z"/>
	</g>
	<g>
		<path class="st6" d="M123.54,200.29c0,0,3.71,2.06,18.54-0.41c14.83-2.47,40.78-9.47,47.79-10.71c7-1.24,29.66,0.82,35.84,4.53
			c6.18,3.71,40.78,24.72,52.73,29.25c11.95,4.53,28.01,12.36,37.9,18.54c9.89,6.18,67.56,45.31,67.56,45.31s9.89,8.65,11.53,16.07
			c1.65,7.42-1.65,16.48-8.24,18.54c-6.59,2.06-14.83,2.88-14.83,2.88s-0.05,13.55-5.77,20.6c-7.53,9.27-18.54,10.3-18.54,10.3
			s-5.36,11.53-12.36,14.42c-7,2.88-16.48,5.36-16.48,5.36s-2.06,10.71-13.18,13.59c-11.12,2.88-23.48,0.82-28.84-0.82
			c-5.36-1.65,4.94-2.06-25.54-13.59C221.17,362.6,161.03,342,139.2,333.77c-21.83-8.24-32.96-19.77-32.96-19.77L123.54,200.29z"/>
		<polygon class="st4" points="122.89,239.06 121.57,323.88 110.59,319.05 		"/>
		<polyline class="st7" points="296.56,276.5 306.03,285.98 372.36,324.29 		"/>
		<path class="st7" d="M296.96,328.22c15.18,8.82,42.03,24.32,44.09,24.91c2.88,0.82,7,2.06,7,2.06"/>
		<path class="st7" d="M286.67,322.23c0,0,2.2,1.29,5.72,3.33"/>
		<path class="st7" d="M256.6,346.54c0,0,28.42,13.59,40.37,21.01c11.95,7.41,22.25,7.41,22.25,7.41"/>
		<path class="st7" d="M363.43,333.81c0,0-1.67,13.37-12.03,16.34"/>
		<path class="st7" d="M373.61,286.01c0,0,1.85,9.56-4.32,17.27c-6.17,7.71-8.63,8.33-8.63,8.33"/>
		<path class="st7" d="M368.06,286.63c0,0-1.85,10.18-5.24,14.8"/>
		<path class="st7" d="M359.73,293.1c0,0-3.39,8.02-3.08,13.26"/>
		<path class="st7" d="M361.58,329.8c0,0-6.78,4.32-9.25,11.1"/>
		<path class="st7" d="M328.93,353.89c0,0-2.79,11.61-7.66,14.63"/>
		<path class="st7" d="M326.84,350.87c0,0-3.95,10.91-5.11,11.84"/>
	</g>
	<polygon class="st4" points="57.88,394.3 82.19,330.42 71.09,325.17 	"/>
	<path class="st5" d="M104.18,197.41l21.02,0.37c1.33,0.02,2.35,1.17,2.23,2.5l-13.18,137.39c-0.1,1-1.04,1.68-2.02,1.47
		l-43.48-9.49L104.18,197.41z"/>
	<polygon class="st4" points="105.34,220.64 79.31,330.59 71.68,328.3 	"/>
	<path class="st1" d="M109.97,192.5L-0.18,157.64V378.9l54.68,18.19c1.47,0.51,3.06-0.33,3.46-1.83l53.78-199.47
		C112.12,194.39,111.34,192.94,109.97,192.5z"/>
	<polygon class="st8" points="24.8,386.83 0.5,300.82 -0.18,378.9 	"/>
	<path class="st4" d="M416.97,349.96l-14.99-39.28l30.22-9.87c0,0-8.05,35.44-13.23,47.87
		C418.29,350.32,417.56,351.64,416.97,349.96z"/>
	<path class="st5" d="M368.48,177.32c-2.03,0.52-2.99,2.83-1.94,4.64c4.7,8.11,16.06,29.92,24.65,64.27
		c9.75,38.99,6.18,62.77,5.17,67.99c-0.1,0.54,0.35,1.01,0.89,0.94l28.79-3.86c0,0,2.47-77.09-13.88-106.39
		c-16.34-29.3-20.35-33.61-20.35-33.61L368.48,177.32z"/>
	<path class="st4" d="M393.81,206.58c0,0,13.88,25.58,16.77,57.91c2.83,31.65,1.43,47.14,1.43,47.14l9.6-1.68
		c0,0,7.29-35.5-1.98-65.96c-9.27-30.46-26.49-43.37-26.49-43.37L393.81,206.58z"/>
	<path class="st1" d="M499.36,128.88l-124.4,41.88c-1.96,0.69-2.63,3.12-1.29,4.7c7.95,9.43,25.55,39.29,33.61,71.54
		c8.7,34.81,10.54,90.11,9.7,102.95c-0.09,1.31,1.13,2.32,2.41,2l79.98-18.85V128.88z"/>
	<polygon class="st8" points="487.9,336.12 499.15,259.1 499.36,333.11 	"/>
	<g>
		<path class="st5" d="M195.73,328.76c0,0-20.06,20.48-21.78,29.57c-1.72,9.08,2.7,14.24,10.31,18.41
			c7.61,4.17,14.73,2.7,18.16,0.25c3.44-2.45,17.43-25.04,17.92-32.16c0.49-7.12-1.96-12.03-8.35-15.22
			C205.62,326.41,201.61,325.01,195.73,328.76z"/>
		<path class="st5" d="M227.3,335.89c0,0-19.98,30.33-21.94,34.43c-1.96,4.1,5.89,16.05,14.98,18.37c9.1,2.32,16.05-0.18,17.13-0.89
			c1.07-0.71,11.06-32.47,11.42-34.79c0.36-2.32,1.78-9.1-4.99-14.45S230.16,333.75,227.3,335.89z"/>
		<g>
			<path class="st5" d="M152.98,328.99c-2.35,0.59-4.25,2.31-5.09,4.58c-0.81,2.19-1.69,5.13-1.82,7.73
				c-0.25,4.91,6.38,12.52,11.29,15.22c4.91,2.7,10.31,2.21,16.69-1.47c6.38-3.68,2.95-13.01-0.49-17.43
				C170.46,333.63,163.96,326.24,152.98,328.99z"/>
			<path class="st7" d="M153.13,340.11l16.51,12.38c0,0-4.68,1.24-8.67,0.55c-3.99-0.69-8.67-3.58-8.53-9.35"/>
		</g>
		<path class="st7" d="M199.25,333.76c0,0-3.44,1.51-5.23,6.6c-1.79,5.09,0.14,9.49,3.85,12.24c3.71,2.75,10.18,2.2,13.07-0.28
			c2.89-2.48,4.26-5.78,4.26-5.78s0-4.95-5.37-9.49s-9.35-3.58-9.35-3.58"/>
		<path class="st7" d="M228.83,341.61c0,0-6.47,9.9-5.09,13.34c1.38,3.44,7.7,7.29,10.18,6.88c2.48-0.41,9.63-7.84,10.04-9.63
			c0.41-1.79-6.05-7.43-8.8-8.94c-2.75-1.51-3.71-1.51-3.71-1.51"/>
		<g>
			<path class="st4" d="M267.28,359.69c0,0,5.58,6.08,6.08,12.17c0.51,6.08,0.25,8.87,0.76,9.88c0.51,1.01,3.07,5.99,3.07,5.99
				l-5.86,0.85l-6.08-7.35L267.28,359.69z"/>
			<path class="st5" d="M252.1,351.59c0,0-3.57,1.43-5.89,8.38c-2.32,6.96-11.06,21.76-8.74,26.04c2.32,4.28,8.74,8.21,13.91,9.63
				c5.17,1.43,13.2,0.18,17.66-1.96c4.46-2.14,6.24-6.6,6.24-6.6s-1.25-2.5-3.57-3.92c-2.32-1.43-2.32-1.43-2.32-1.43
				s2.14-16.41-2.85-23.9C261.55,350.34,255.31,350.16,252.1,351.59z"/>
			<path class="st7" d="M250.15,356.46c0,0,2.2-0.83,6.74,3.3c4.54,4.13,3.03,7.43,3.03,7.43s-3.44,5.92-6.33,6.47
				s-9.35,0.83-8.53-5.78"/>
			<path class="st7" d="M269.4,381.74c0,0-1.64,5.54-4.12,8.43"/>
		</g>
	</g>
	<g>
		<path class="st4" d="M200.28,233.57c-2.97,3.33,9.12,0.38,21.18-12.6c4.42-4.76,41.91-8.61,41.02-5.36l-8.58-3.75
			c0,0-13.14-0.8-23.32,0.8c-10.19,1.61-24.13,10.46-24.13,10.46L200.28,233.57z"/>
		<path class="st5" d="M263.83,213.54h-5.86c0,0-15.42,0.31-18.19,1.23c-2.78,0.93-22.51,4.63-24.98,7.4
			c-2.47,2.78-17.27,15.42-28.99,16.04c-11.72,0.62-21.59-4.93-23.44-8.02c-1.85-3.08,3.7-9.56,7.09-12.64
			c3.39-3.08,19.43-21.28,22.51-28.06c3.08-6.78,14.49-8.02,22.2-8.94c7.71-0.93,37.93-10.48,37.93-10.48s7.71-3.7,22.2-0.62
			c14.49,3.08,31.45,5.24,41.63,7.4s16.04,4.01,29.91,8.94c13.88,4.93,20.97,16.34,22.51,21.59"/>
		<path class="st7" d="M216.34,201.82c0,0,4.63,13.57-1.54,20.35"/>
		<path class="st7" d="M178.23,210.85c0,0-12.07,9.52-13.93,12.54c-1.86,3.02-0.23,1.86,4.88,0.7s12.31-4.41,14.4-6.97
			c2.09-2.55,7.66-7.9,3.25-8.82c-4.41-0.93-5.57,1.39-5.57,1.39"/>
	</g>
	<path class="st7" d="M363.9,252.04c1.32-1.61,2.45-3.43,3.25-5.49"/>
	<path class="st7" d="M346.98,262.42c0,0,5.98-1.53,11.63-5.53"/>
</g>
</svg>
